<svg xmlns="http://www.w3.org/2000/svg" width="256" height="256" viewBox="0 0 100 100"><rect width="100" height="100" rx="50" fill="#422ad5"></rect><path fill="#fff" d="M26.33 86.36L26.33 86.36Q24.08 85.10 23.49 83.70Q22.91 82.31 22.91 81.41L22.91 81.41Q22.91 78.89 24.71 74.66Q26.51 70.43 29.57 64.94Q32.63 59.45 36.41 53.60L36.41 53.60Q33.26 53.33 30.88 53.24Q28.49 53.15 25.97 53.15L25.97 53.15L23.45 53.15Q24.53 50.36 27.09 49.23Q29.66 48.11 33.17 48.11L33.17 48.11Q34.70 48.11 36.32 48.29Q37.94 48.47 39.65 48.74L39.65 48.74Q44.24 41.90 48.92 35.65Q53.60 29.39 57.70 24.44Q61.79 19.49 64.67 16.79L64.67 16.79Q67.82 13.64 69.62 13.64L69.62 13.64Q70.70 13.64 72.05 14.50Q73.40 15.35 74.84 16.79L74.84 16.79Q73.94 17.51 72.54 20.57Q71.15 23.63 69.57 28.27Q68 32.90 66.47 38.39Q64.94 43.88 63.63 49.64Q62.33 55.40 61.56 60.58Q60.80 65.75 60.80 69.62L60.80 69.62Q60.80 73.13 61.56 74.97Q62.33 76.82 64.04 76.82L64.04 76.82Q66.29 76.82 69.31 73.63Q72.32 70.43 75.92 63.50L75.92 63.50L77.09 64.67Q74.30 71.87 70.03 76.55Q65.75 81.23 61.07 81.23L61.07 81.23Q57.20 81.23 55.49 77.77Q53.78 74.30 53.78 68.54L53.78 68.54Q53.78 65.93 54.14 62.78Q54.50 59.63 55.22 55.85L55.22 55.85Q51.26 55.22 48.02 54.81Q44.78 54.41 41.99 54.05L41.99 54.05Q37.76 61.88 33.75 70.12Q29.75 78.35 26.33 86.36ZM55.94 52.25L55.94 52.25Q57.20 46.58 58.91 40.69Q60.62 34.79 62.55 29.48Q64.49 24.17 66.29 20.12L66.29 20.12Q63.50 21.92 59.99 26.20Q56.48 30.47 52.56 36.46Q48.65 42.44 44.51 49.64L44.51 49.64Q47.48 50.18 50.41 50.90Q53.33 51.62 55.94 52.25Z"></path></svg>